<svg width="21" height="20" viewBox="0 0 21 20" fill="none" xmlns="http://www.w3.org/2000/svg">
<path d="M9.78626 0.479817C9.99414 -0.159982 10.8993 -0.159981 11.1072 0.479818L13.0972 6.60458C13.1902 6.89071 13.4568 7.08443 13.7577 7.08443H20.1976C20.8704 7.08443 21.1501 7.94528 20.6058 8.34069L15.3958 12.126C15.1524 12.3028 15.0506 12.6163 15.1435 12.9024L17.1336 19.0272C17.3415 19.667 16.6092 20.199 16.0649 19.8036L10.8549 16.0183C10.6115 15.8414 10.2819 15.8414 10.0385 16.0183L4.8285 19.8036C4.28425 20.199 3.55197 19.667 3.75986 19.0272L5.74991 12.9024C5.84288 12.6163 5.74103 12.3028 5.49764 12.126L0.287605 8.34069C-0.256641 7.94527 0.0230656 7.08443 0.69579 7.08443H7.13575C7.4366 7.08443 7.70324 6.89071 7.7962 6.60458L9.78626 0.479817Z" fill="white"/>
</svg>
